 http://www.imdb.com/title/tt0493451/

User Rating:5.8/10 - 547 votes

Horror/Thriller 

Director:Tennyson Bardwell

Cast:Tim Daly/Tom Arnold/Zoe Saldana/Andrea Roth, and others.

Plot:
After the mysterious death of his Aunt, a confirmed skeptic lawyer, Bryan Becket, dismisses reports that his Aunt's house is haunted and moves in. Immediately occurrences begin he cannot explain. And beyond the occurrences there is something about the house which gnaws at Becket - some strange connection he senses he has with the house's past. Soon, the haunting turns personal, he hears voices suggesting clues to a deep mystery. He questions his sanity, seeks medical help, but instead finds assistance in a young psychic who immediately declares, "There's a very bad secret in this house." Together they embark on a terrifying journey to uncover the secret - a journey which leads them deep into the recesses of The Skeptic's own troubled mind.....

Info:

Cover included.

General
Complete name                    : The Skeptic-AC3-5,1-DVDRip[Eng]2009.avi
Format                           : AVI
Format/Info                      : Audio Video Interleave
File size                        : 1.24 GiB
Duration                         : 1h 28mn
Overall bit rate                 : 1 988 Kbps
Writing application              : VirtualDubMod 1.5.4.1 (build 2178/release)
Writing library                  : VirtualDubMod build 2178/release

Video
ID                               : 0
Format                           : MPEG-4 Visual
Format profile                   : Simple@L3
Format settings, BVOP            : No
Format settings, QPel            : No
Format settings, GMC             : No warppoints
Format settings, Matrix          : Default (H.263)
Codec ID                         : XVID
Codec ID/Hint                    : XviD
Duration                         : 1h 28mn
Bit rate                         : 1 530 Kbps
Width                            : 624 pixels
Height                           : 336 pixels
Display aspect ratio             : 1.857
Frame rate                       : 23.976 fps
Resolution                       : 24 bits
Colorimetry                      : 4:2:0
Scan type                        : Progressive
Bits/(Pixel*Frame)               : 0.304
Stream size                      : 974 MiB (77%)
Writing library                  : XviD 1.1.2 (UTC 2006-11-01)

Audio
ID                               : 1
Format                           : AC-3
Format/Info                      : Audio Coding 3
Codec ID                         : 2000
Duration                         : 1h 28mn
Bit rate mode                    : Constant
Bit rate                         : 448 Kbps
Channel(s)                       : 6 channels
Channel positions                : Front: L C R, Surround: L R, LFE
Sampling rate                    : 48.0 KHz
Stream size                      : 285 MiB (23%)
Alignment                        : Split accross interleaves
Interleave, duration             : 42 ms (1.00 video frame)
Interleave, preload duration     : 500 ms

Enjoy...